<svg width="24" height="24" viewBox="0 0 24 24" fill="none" xmlns="http://www.w3.org/2000/svg">
<g clip-path="url(#clip0_100630_318)">
<path d="M11.8579 5.80664C13.1816 5.80664 14.3429 5.28904 15.3417 4.25384C16.3404 3.21863 16.8398 2.01486 16.8398 0.642543C16.8398 0.491823 16.8279 0.277642 16.8041 0C16.6298 0.0237979 16.499 0.0436295 16.4118 0.0594947C15.1911 0.234013 14.117 0.832926 13.1896 1.85621C12.2622 2.87952 11.7985 3.97422 11.7985 5.14032C11.7985 5.27515 11.8183 5.49729 11.8579 5.80664ZM16.602 24C17.5453 24 18.5876 23.3535 19.7291 22.0605C20.8706 20.7675 21.7425 19.2484 22.3449 17.5032C20.1016 16.3451 18.98 14.6832 18.98 12.5176C18.98 10.709 19.8876 9.16214 21.7028 7.87705C20.4425 6.29846 18.7779 5.50916 16.709 5.50916C15.8371 5.50916 15.0405 5.64005 14.3191 5.90183L13.8673 6.06841L13.2609 6.30639C12.8646 6.45711 12.5039 6.5325 12.1789 6.5325C11.9253 6.5325 11.5923 6.44521 11.1802 6.27069L10.7164 6.08031L10.2765 5.90183C9.63445 5.63212 8.94483 5.49726 8.20766 5.49726C6.23392 5.49726 4.64859 6.1636 3.45165 7.49629C2.25471 8.82894 1.65625 10.586 1.65625 12.7675C1.65625 15.8374 2.61537 18.6733 4.53364 21.2752C5.86533 23.0917 7.08207 24 8.18387 24C8.65156 24 9.11526 23.9088 9.57501 23.7263L10.1576 23.4883L10.6213 23.3218C11.2713 23.0917 11.8698 22.9767 12.4167 22.9767C12.9954 22.9767 13.6612 23.1235 14.4143 23.417L14.7828 23.5597C15.5517 23.8532 16.1581 24 16.602 24Z" fill="#212121"/>
</g>
<defs>
<clipPath id="clip0_100630_318">
<rect width="20.6897" height="24" fill="white" transform="translate(1.65527)"/>
</clipPath>
</defs>
</svg>
